<svg width="39" height="37" viewBox="0 0 39 37" fill="none" xmlns="http://www.w3.org/2000/svg">
<path id="Vector" d="M35.147 4.09425C34.2429 3.11329 33.1695 2.33511 31.988 1.80419C30.8066 1.27327 29.5402 1 28.2614 1C26.9825 1 25.7162 1.27327 24.5348 1.80419C23.3533 2.33511 22.2799 3.11329 21.3758 4.09425L19.4995 6.12916L17.6233 4.09425C15.7971 2.11369 13.3203 1.00103 10.7377 1.00103C8.15508 1.00103 5.67827 2.11369 3.8521 4.09425C2.02593 6.07481 1 8.76103 1 11.562C1 14.3629 2.02593 17.0491 3.8521 19.0297L5.72837 21.0646L19.4995 36L33.2707 21.0646L35.147 19.0297C36.0515 18.0492 36.769 16.885 37.2585 15.6037C37.748 14.3223 38 12.9489 38 11.562C38 10.175 37.748 8.80161 37.2585 7.52027C36.769 6.23894 36.0515 5.07476 35.147 4.09425Z" stroke="#5A1061" stroke-width="2" stroke-linecap="round" stroke-linejoin="round"/>
</svg>
