<svg width="51" height="40" viewBox="0 0 51 40" fill="none" xmlns="http://www.w3.org/2000/svg">
<path d="M18.4869 38.9232C19.6942 38.9232 20.6729 38.1147 20.6729 37.1174C20.6729 36.12 19.6942 35.3115 18.4869 35.3115C17.2795 35.3115 16.3008 36.12 16.3008 37.1174C16.3008 38.1147 17.2795 38.9232 18.4869 38.9232Z" stroke="white" stroke-width="2" stroke-linecap="round" stroke-linejoin="round"/>
<path d="M42.5357 38.9232C43.743 38.9232 44.7218 38.1147 44.7218 37.1174C44.7218 36.12 43.743 35.3115 42.5357 35.3115C41.3284 35.3115 40.3496 36.12 40.3496 37.1174C40.3496 38.1147 41.3284 38.9232 42.5357 38.9232Z" stroke="white" stroke-width="2" stroke-linecap="round" stroke-linejoin="round"/>
<path d="M1 1H9.74432L15.603 25.1805C15.8029 26.0119 16.3504 26.7587 17.1498 27.2903C17.9491 27.8218 18.9492 28.1042 19.9752 28.0879H41.2239C42.2498 28.1042 43.25 27.8218 44.0493 27.2903C44.8486 26.7587 45.3961 26.0119 45.596 25.1805L49.0937 10.0293H11.9304" stroke="white" stroke-width="2" stroke-linecap="round" stroke-linejoin="round"/>
</svg>
